<?xml version="1.0" encoding="utf-8"?>
<!-- Generator: Adobe Illustrator 25.3.1, SVG Export Plug-In . SVG Version: 6.00 Build 0)  -->
<svg version="1.1" id="Layer_1" xmlns="http://www.w3.org/2000/svg" xmlns:xlink="http://www.w3.org/1999/xlink" x="0px" y="0px"
	 viewBox="0 0 1238 338" style="enable-background:new 0 0 1238 338;" xml:space="preserve">
<style type="text/css">
	.st0{clip-path:url(#SVGID_2_);fill:#FFFFFF;}
	.st1{fill:#FFFFFF;}
	.st2{fill:none;stroke:#0072BD;stroke-width:5.3333;stroke-linejoin:round;stroke-miterlimit:10;}
	.st3{fill:none;stroke:#D95319;stroke-width:5.3333;stroke-linejoin:round;stroke-miterlimit:10;}
</style>
<g>
	<g>
		<g>
			<defs>
				<rect id="SVGID_1_" width="1238" height="338"/>
			</defs>
			<clipPath id="SVGID_2_">
				<use xlink:href="#SVGID_1_"  style="overflow:visible;"/>
			</clipPath>
			<rect class="st0" width="1238" height="338"/>
		</g>
	</g>
	<g>
		<rect x="2.1" class="st1" width="1238" height="338"/>
	</g>
	<g>
		<path class="st2" d="M161,30.7l3.9-1.5l2-0.7l2-0.6l2-0.5l2-0.5l2-0.4l2-0.4l2-0.3l2-0.3l2-0.2l2-0.1l2-0.1l2,0l2,0l2,0.1l2.3,0.2
			l2.3,0.3l2.3,0.3l2.3,0.4l2.3,0.5l2.3,0.6l2.3,0.7l2.3,0.7l2.3,0.8l2.3,0.9l2.3,1l2.3,1l2.3,1.1l2.3,1.2l4.6,2.6l4.5,2.8l4.5,3.1
			l4.5,3.3l4.5,3.6l4.5,3.8l4.5,4.1l4.5,4.3l4.5,4.5l8.2,8.8l8.2,9.4l8.2,10l8.2,10.5l16.8,22.7l16.8,23.8l17.4,25.1l17.4,24.6
			l18.9,25.2l9.4,11.7l9.4,11l7.7,8.3l7.7,7.7l7.7,7l3.8,3.3l3.8,3.1l4.8,3.6l4.8,3.3l4.8,3l4.8,2.7l2.4,1.2l2.4,1.1l2.4,1.1l2.4,1
			l2.4,0.9l2.4,0.8l2.4,0.7l2.4,0.6l1.9,0.4l1.9,0.4l1.9,0.3l1.9,0.3l1.9,0.2l1.9,0.2l1.9,0.1l1.9,0.1l1.9,0l1.9,0l1.9-0.1l1.9-0.1
			l1.9-0.2l1.9-0.3l1.9-0.3l1.9-0.4l2.1-0.5l2.1-0.5l2.1-0.6l2.1-0.6l2.1-0.7l2.1-0.8l4.1-1.7l4.1-2l4.1-2.2l4.1-2.4l4.1-2.7
			l4.4-3.1l4.4-3.4l4.4-3.6l4.4-3.9l4.4-4.1l4.4-4.3l8.9-9.2l8.2-9.3l8.2-9.9l16.5-21.2l17.8-24.6l17.8-25.4l19.1-27.3l19.1-26.2
			l15.1-19.3l7.6-9l7.6-8.5l9.2-9.6l4.6-4.4l4.6-4.2l4.6-4l4.6-3.7l4.6-3.4l4.6-3.2l4-2.5l4-2.3l4-2.1l4-1.8l4-1.6l2-0.7l2-0.7
			l2-0.6l2-0.6l2-0.5l2-0.4l2.3-0.4l2.3-0.3l2.3-0.3l2.3-0.2l2.3-0.1l2.3,0l2.3,0l2.3,0.1l2.3,0.2l2.3,0.3l2.3,0.3l2.3,0.4l2.3,0.5
			l2.3,0.6l2.3,0.6l2.3,0.7l2,0.7l2,0.8l4.1,1.7l4.1,1.9l4.1,2.2l4.1,2.4l4.1,2.6l4.1,2.8L846,47l4.2,3.4l4.2,3.6l4.2,3.9l4.2,4.1
			l8.5,8.7l8.5,9.4l8.6,10.3l8.6,10.9l17.3,23.1l34.3,48.8l17.1,24.3l17.1,23.2l8.9,11.4l8.9,10.8l8.9,10.1l8.9,9.3l4.1,4l4.1,3.8
			l4.1,3.6l4.1,3.4l4.1,3.2l4.1,3l4.1,2.8l4.1,2.6l4.6,2.6l2.3,1.2l2.3,1.1l2.3,1l2.3,1l2.3,0.9l2.3,0.8l2.3,0.7l2.3,0.7l2.3,0.6
			l2.3,0.5l2.3,0.4l2.3,0.3l2.3,0.3l2.3,0.2l2,0.1l2,0l2,0l2-0.1l2-0.1l2-0.2l2-0.3l2-0.3l2-0.4l2-0.4l2-0.5l2-0.5l2-0.6l2-0.7
			l3.9-1.5"/>
		<path class="st3" d="M161,123.9l31.4,44.7l18.5,26.4l18.5,25.2l9,11.5l9,10.9l9,10.2l9,9.4l8.2,7.8l4.1,3.6l4.1,3.4l4.1,3.2l4.1,3
			l4.1,2.8l4.1,2.6l4.2,2.4l4.2,2.2l4.2,1.9l2.1,0.9l2.1,0.8l2.1,0.7l2.1,0.7l2.1,0.6l2.1,0.5l2.1,0.5l2.1,0.4l2.1,0.3l2.1,0.3
			l2.2,0.2l2.2,0.1l2.2,0.1l2.2,0l2.2-0.1l2.2-0.1l2.2-0.2l2.2-0.3l2.2-0.4l2.2-0.4l2.2-0.5l2.2-0.6l2.2-0.6l2.2-0.7l2.2-0.8
			l2.2-0.8l2.4-1l2.4-1.1l2.4-1.2l2.4-1.2l4.7-2.7l4.7-3l4.7-3.3l4.7-3.6l4.7-3.9l4.7-4.1l3.8-3.6l3.8-3.7l7.7-7.9l7.7-8.5l7.7-9
			l9.5-11.9l9.5-12.5l19.1-26.4l30.3-43.5l16.5-23.1l16.5-21.9l8.9-11l8.9-10.3l8.9-9.6l8.9-8.8l4.1-3.8l4.1-3.6l4.1-3.4l4.1-3.2
			l4.1-2.9l4.1-2.7l4.1-2.5l4.1-2.3l4.4-2.2l2.2-1l2.2-0.9l2.2-0.8l2.2-0.8l2.2-0.7l2.2-0.6l2.2-0.6l2.2-0.5l2.2-0.4l2.2-0.3
			l2.2-0.3l2.2-0.2l2.2-0.1l2.2,0l2.4,0l2.4,0.1l2.4,0.2l2.4,0.3l2.4,0.4l2.4,0.5l2.4,0.6l2.4,0.6l2.4,0.7l2.4,0.8l2.4,0.9l2.4,1
			l2.4,1.1l2.4,1.1l2.4,1.2l2.4,1.3l3.8,2.2l3.8,2.4l3.8,2.6l3.8,2.8l3.8,3l3.8,3.1l3.8,3.3l3.8,3.5l9.2,9.1l9.2,10l9.2,10.8
			l9.2,11.5l15.9,21.1l15.9,22.3l36.1,51.5l16.2,22.1l8.1,10.5l8.1,10.1l8.5,10l8.5,9.3l8.5,8.6l4.2,4l4.2,3.8l4.3,3.6l4.3,3.4
			l4.3,3.2l4.3,2.9l4.3,2.7l4.3,2.4l4.3,2.1l2.2,1l2.2,0.9l2.1,0.8l2.1,0.8l2.1,0.7l2.1,0.6l2.1,0.6l2.1,0.5l2.1,0.4l2.1,0.4
			l2.1,0.3l2.1,0.2l2.1,0.2l2.1,0.1l2.1,0l2.1-0.1l2.1-0.1l2.1-0.2l2.1-0.3l2.1-0.3l2.1-0.4l2.1-0.5l2.1-0.5l2.1-0.6l2.1-0.7
			l2.1-0.7l2.1-0.8l2.1-0.9l4.3-1.9l4.3-2.2l4.3-2.4l4.5-2.8l4.5-3.1l4.5-3.3l4.5-3.6l4.5-3.8l4.5-4.1l4.5-4.3l4.5-4.5l8.2-8.8
			l8.2-9.5l8.2-10.1l8.2-10.5L1070,195l18.5-26.3l31.5-44.8"/>
	</g>
</g>
<g>
	<g>
		<g>
			<path d="M770.4,121c0.9-2.8,3.6-4.5,5.4-6.7c-0.3,0.2-0.6,0.3-0.9,0.5c-1.1,1.9-2.8,3.4-4.2,5c0.2-0.2,0.7-0.3,0.9-0.5
				c1.4-1.6,3.1-3.1,4.2-5c-0.1,0.1-0.3,0.2-0.4,0.2c-0.1,0.1-0.3,0.1-0.4,0.3c-1.8,2.2-4.4,3.9-5.4,6.7c0-0.1,0.4-0.2,0.4-0.2
				C770.1,121.2,770.4,121.1,770.4,121L770.4,121z"/>
		</g>
	</g>
	<g>
		<g>
			<g>
				<path d="M772.3,117.6c-1.4-0.8-2.8-1.7-4.2-2.5c0,0-0.4,0.2-0.4,0.2c0,0-0.4,0.3-0.4,0.3c1.4,0.8,2.8,1.7,4.2,2.5
					c0,0,0.4-0.2,0.4-0.2C772,117.8,772.3,117.6,772.3,117.6L772.3,117.6z"/>
			</g>
		</g>
		<g>
			<g>
				<path d="M772.3,124.1c-0.1,2.3,1.6,4,2.7,5.9c0,0,0.9-0.5,0.9-0.5c-1.1-1.9-2.8-3.6-2.7-5.9c0,0-0.4,0.2-0.4,0.2
					C772.6,123.9,772.3,124.1,772.3,124.1L772.3,124.1z"/>
			</g>
		</g>
		<g>
			<g>
				<g>
					<path d="M771.8,117.7c0.3,0,0.6-0.5,0.9-0.5C772.4,117.2,772.1,117.7,771.8,117.7L771.8,117.7z"/>
				</g>
			</g>
			<g>
				<g>
					<g>
						<path d="M773.4,127.6c5,7.8,10.3,15.4,15.9,22.8c5.6,7.3,11.4,14.4,17.6,21.2c1.5,1.6,3.2,3.6,5.5,4c1.5,0.2,3.3-0.6,4.3-1.8
							c-0.2,0.2-0.7,0.3-0.9,0.5c-0.1,0.2-0.3,0.3-0.4,0.5c-0.1,0.1-0.1,0.1-0.2,0.2c0.3-0.2,0,0,0,0c-0.4,0.1-0.8,0.2-1.3,0.2
							c-0.9,0-1.7-0.3-2.4-0.7c-1.8-1-3.1-2.7-4.4-4.2c-2.9-3.2-5.8-6.5-8.5-9.9c-5.6-6.7-10.9-13.7-16-20.9
							c-2.9-4.1-5.6-8.2-8.3-12.4C774.2,127.1,773.4,127.6,773.4,127.6L773.4,127.6z"/>
					</g>
				</g>
				<g>
					<g>
						<g>
							<path d="M807.7,136.9c-9.5-4.1-18.6-9-27.4-14.4c-2.5-1.6-5-3.2-7.5-4.9c-0.1-0.1-0.8,0.6-0.9,0.5
								c8.6,5.8,17.6,11.1,26.9,15.6c2.6,1.3,5.3,2.5,8,3.7C807,137.5,807.5,136.8,807.7,136.9L807.7,136.9z"/>
						</g>
					</g>
					<g>
						<g>
							<path d="M825,115.6c0-1.4-0.8-2.6-2-3.2c-1.4-0.7-3-0.4-4.3,0.2c-2.2,1-4.6,2.5-5.7,4.7c-0.6,1.3-0.8,2.8,0,4.1
								c0.6,1.1,1.8,1.8,3.1,2.1c2.2,0.5,4.2-0.3,6-1.5c2.4-1.7,3.4-4.6,2.8-7.4c0,0.1-0.9,0.4-0.9,0.5c0.5,2.2,0,4.4-1.4,6.1
								c-0.3,0.4-0.7,0.7-1,1c-0.1,0.1-0.2,0.2-0.3,0.3c-0.3,0.2-0.4,0.1,0.1,0c-0.3,0.1-0.6,0.3-0.9,0.4c-1,0.3-2.1,0.4-3.1,0.2
								c-2.3-0.4-4.1-2.3-3.8-4.7c0.3-2.5,2.7-4.6,4.8-5.5c1.3-0.5,2.8-0.7,4.1,0c1.1,0.6,1.9,1.8,1.9,3.2
								C824.2,116,825,115.8,825,115.6L825,115.6z"/>
						</g>
					</g>
					<g>
						<g>
							<path d="M809.9,123.9c-0.8,0.7-1.5,1.4-2.3,2.1c0,0,0.1-0.1,0.1-0.1c0.1-0.1,0.2-0.1,0.3-0.2c0.1-0.1,0.2-0.1,0.3-0.2
								c0,0,0.1,0,0.1-0.1c0.8-0.7,1.5-1.4,2.3-2.1c0,0-0.1,0.1-0.1,0.1c-0.1,0.1-0.2,0.1-0.3,0.2c-0.1,0.1-0.2,0.1-0.3,0.2
								C810,123.9,809.9,123.9,809.9,123.9L809.9,123.9z"/>
						</g>
					</g>
					<g>
						<g>
							<path d="M808.1,124.5c-4.2-0.4-8.1-2-11.5-4.4c0,0-0.9,0.5-0.9,0.5c1.5,4.5,2.3,9.1,2.5,13.9c0-0.1,0.9-0.3,0.9-0.5
								c-0.2-4.7-1-9.4-2.5-13.9c-0.3,0.2-0.6,0.3-0.9,0.5c3.4,2.4,7.4,4,11.5,4.4C807.5,125,807.8,124.5,808.1,124.5L808.1,124.5z"
								/>
						</g>
					</g>
					<g>
						<g>
							<path d="M804,136.1c0.3,0,0.6-0.5,0.9-0.5C804.6,135.6,804.3,136.1,804,136.1L804,136.1z"/>
						</g>
					</g>
					<g>
						<g>
							<path d="M807.7,126.2c-1.8,1.4-3.7,2.8-5.5,4.2c0.3-0.2,0.6-0.3,0.9-0.5c1.8-1.4,3.7-2.8,5.5-4.2
								C808.3,125.9,807.9,126,807.7,126.2L807.7,126.2z"/>
						</g>
					</g>
					<g>
						<g>
							<path d="M807.2,127.1c-3.5,3.6-7.4,6.9-11.5,9.9c0.3-0.2,0.6-0.3,0.9-0.5c4.1-3,7.9-6.3,11.5-9.9
								C807.8,126.9,807.4,126.9,807.2,127.1L807.2,127.1z"/>
						</g>
					</g>
					<g>
						<g>
							<path d="M795.5,140.8c-0.2,3.7-0.4,7.4-0.4,11.1c0.3-0.2,0.6-0.3,0.9-0.5c-2.8-2.6-6-4.9-9.4-6.7c-0.2-0.1-0.7,0.6-0.9,0.5
								c3.4,1.8,6.6,4.1,9.4,6.7c0,0,0.9-0.5,0.9-0.5c0-3.7,0.1-7.4,0.4-11.1C796.4,140.5,795.5,140.6,795.5,140.8L795.5,140.8z"/>
						</g>
					</g>
					<g>
						<g>
							<path d="M809.1,125.1c-0.5,0.9-1.2,1.8-1.9,2.6c-0.8,0.8-1.8,1.4-2.7,2c-0.5,0.3-1,0.7-1.5,1c-0.3,0.2-0.8,0.6-0.6,0.9
								c0.1,0.3,0.5,0.1,0.7,0c0.2-0.1,0.9-0.4,0.7-0.7c0,0-0.9,0.5-0.9,0.5c0.1,0.1,0,0.2-0.1,0.3c0.3-0.2,0.6-0.3,0.9-0.5
								c-0.2,0.1-0.5,0-0.5-0.3c0-0.4,0.5-0.7,0.8-0.9c0.9-0.6,1.7-1.1,2.6-1.7c1.4-1,2.6-2.3,3.4-3.8c0,0.1-0.3,0.2-0.4,0.2
								C809.4,124.9,809.1,125,809.1,125.1L809.1,125.1z"/>
						</g>
					</g>
					<g>
						<g>
							<path d="M810.7,123c-5.6,4.7-12.2,9-15.3,15.8c-0.3,0.6,0.7,1.2,0.9,0.6c3.1-6.8,9.6-11,15.1-15.6
								C812,123.3,811.3,122.6,810.7,123L810.7,123z"/>
						</g>
					</g>
					<path d="M794.4,137.6c-0.8-0.1-2.5,4,0.6,4.5C797.5,140.1,797.5,140,794.4,137.6z"/>
				</g>
			</g>
		</g>
	</g>
</g>
</svg>
